M48
;Layer_Color=9474304
;FILE_FORMAT=4:4
METRIC,LZ
;TYPE=PLATED
T01F00S00C1.0000
T02F00S00C1.2000
T03F00S00C2.5000
T04F00S00C2.9000
T05F00S00C3.0000
;TYPE=NON_PLATED
T06F00S00C1.8000
%
T01
X-0058Y0012
Y0085
T02
X-0038Y0018
Y002
Y0022
Y0024
Y0026
Y0028
Y003
Y0032
Y0034
Y0036
Y0038
Y004
Y0058
Y006
Y0062
Y0064
Y0066
Y0068
Y007
Y0072
Y0074
Y0076
Y0078
Y008
T03
X-00385Y00155
X-00405Y00425
X-00385Y00555
X-00405Y00825
T04
X-0055Y0038
Y0058
T05
X-0057Y00455
Y00505
T06
X-005465Y0033
X-005135
Y0063
X-005465
M30
