G04*
G04 #@! TF.GenerationSoftware,Altium Limited,Altium Designer,24.9.1 (31)*
G04*
G04 Layer_Physical_Order=1*
G04 Layer_Color=255*
%FSLAX44Y44*%
%MOMM*%
G71*
G04*
G04 #@! TF.SameCoordinates,B8B67402-8590-40DF-8F2E-53978CF21371*
G04*
G04*
G04 #@! TF.FilePolarity,Positive*
G04*
G01*
G75*
%ADD12C,0.2540*%
%ADD13R,3.0000X1.6000*%
%ADD14R,5.5000X1.0000*%
%ADD15R,1.7000X0.6000*%
%ADD16R,2.8000X1.0000*%
%ADD25C,0.5000*%
%ADD26C,2.2000*%
%ADD27C,2.8500*%
%ADD28C,3.0000*%
%ADD29C,1.6000*%
%ADD30R,1.6000X1.6000*%
G04:AMPARAMS|DCode=31|XSize=4mm|YSize=4mm|CornerRadius=1mm|HoleSize=0mm|Usage=FLASHONLY|Rotation=0.000|XOffset=0mm|YOffset=0mm|HoleType=Round|Shape=RoundedRectangle|*
%AMROUNDEDRECTD31*
21,1,4.0000,2.0000,0,0,0.0*
21,1,2.0000,4.0000,0,0,0.0*
1,1,2.0000,1.0000,-1.0000*
1,1,2.0000,-1.0000,-1.0000*
1,1,2.0000,-1.0000,1.0000*
1,1,2.0000,1.0000,1.0000*
%
%ADD31ROUNDEDRECTD31*%
G04:AMPARAMS|DCode=32|XSize=2mm|YSize=2mm|CornerRadius=0.5mm|HoleSize=0mm|Usage=FLASHONLY|Rotation=0.000|XOffset=0mm|YOffset=0mm|HoleType=Round|Shape=RoundedRectangle|*
%AMROUNDEDRECTD32*
21,1,2.0000,1.0000,0,0,0.0*
21,1,1.0000,2.0000,0,0,0.0*
1,1,1.0000,0.5000,-0.5000*
1,1,1.0000,-0.5000,-0.5000*
1,1,1.0000,-0.5000,0.5000*
1,1,1.0000,0.5000,0.5000*
%
%ADD32ROUNDEDRECTD32*%
%ADD33C,3.5000*%
G36*
X-302039Y102039D02*
X-597961D01*
Y480000D01*
X-302039D01*
Y102039D01*
D02*
G37*
G36*
Y490000D02*
X-343480D01*
Y490520D01*
X-363020D01*
Y490000D01*
X-463730D01*
Y496270D01*
X-491865D01*
Y490000D01*
X-493135D01*
Y496270D01*
X-521270D01*
Y490000D01*
X-548730D01*
X-549435Y491056D01*
X-549020Y492058D01*
X-548633Y495000D01*
Y504365D01*
X-591367D01*
Y495000D01*
X-590980Y492058D01*
X-590565Y491056D01*
X-591270Y490000D01*
X-597961D01*
Y870000D01*
X-302039D01*
Y490000D01*
D02*
G37*
%LPC*%
G36*
X-343480Y478020D02*
X-352615D01*
Y474385D01*
X-343480D01*
Y478020D01*
D02*
G37*
G36*
X-353885D02*
X-363020D01*
Y474385D01*
X-353885D01*
Y478020D01*
D02*
G37*
G36*
X-463730Y476270D02*
X-491865D01*
Y470635D01*
X-463730D01*
Y476270D01*
D02*
G37*
G36*
X-493135D02*
X-521270D01*
Y470635D01*
X-493135D01*
Y476270D01*
D02*
G37*
G36*
X-343480Y473115D02*
X-352615D01*
Y469480D01*
X-343480D01*
Y473115D01*
D02*
G37*
G36*
X-353885D02*
X-363020D01*
Y469480D01*
X-353885D01*
Y473115D01*
D02*
G37*
G36*
X-463730Y469365D02*
X-491865D01*
Y463730D01*
X-463730D01*
Y469365D01*
D02*
G37*
G36*
X-493135D02*
X-521270D01*
Y463730D01*
X-493135D01*
Y469365D01*
D02*
G37*
G36*
X-560000Y476367D02*
X-569365D01*
Y455635D01*
X-548633D01*
Y465000D01*
X-549020Y467942D01*
X-550156Y470684D01*
X-551962Y473038D01*
X-554316Y474844D01*
X-557058Y475980D01*
X-560000Y476367D01*
D02*
G37*
G36*
X-570635D02*
X-580000D01*
X-582942Y475980D01*
X-585684Y474844D01*
X-588038Y473038D01*
X-589844Y470684D01*
X-590980Y467942D01*
X-591367Y465000D01*
Y455635D01*
X-570635D01*
Y476367D01*
D02*
G37*
G36*
X-304480Y461520D02*
X-335020D01*
Y448980D01*
X-304480D01*
Y461520D01*
D02*
G37*
G36*
X-453730Y455270D02*
X-486270D01*
Y436730D01*
X-453730D01*
Y455270D01*
D02*
G37*
G36*
X-548633Y454365D02*
X-569365D01*
Y433633D01*
X-560000D01*
X-557058Y434020D01*
X-554316Y435156D01*
X-551962Y436962D01*
X-550156Y439316D01*
X-549020Y442058D01*
X-548633Y445000D01*
Y454365D01*
D02*
G37*
G36*
X-570635D02*
X-591367D01*
Y445000D01*
X-590980Y442058D01*
X-589844Y439316D01*
X-588038Y436962D01*
X-585684Y435156D01*
X-582942Y434020D01*
X-580000Y433633D01*
X-570635D01*
Y454365D01*
D02*
G37*
G36*
X-403397Y441270D02*
X-406603D01*
X-409746Y440645D01*
X-412707Y439418D01*
X-415372Y437638D01*
X-417638Y435372D01*
X-419418Y432707D01*
X-420645Y429746D01*
X-421270Y426603D01*
Y423398D01*
X-420645Y420254D01*
X-419418Y417293D01*
X-417638Y414628D01*
X-415372Y412362D01*
X-412707Y410582D01*
X-409746Y409355D01*
X-406603Y408730D01*
X-403397D01*
X-400254Y409355D01*
X-397293Y410582D01*
X-394628Y412362D01*
X-392362Y414628D01*
X-390582Y417293D01*
X-389355Y420254D01*
X-388730Y423398D01*
Y426603D01*
X-389355Y429746D01*
X-390582Y432707D01*
X-392362Y435372D01*
X-394628Y437638D01*
X-397293Y439418D01*
X-400254Y440645D01*
X-403397Y441270D01*
D02*
G37*
G36*
X-370730Y409270D02*
X-379365D01*
Y400635D01*
X-370730D01*
Y409270D01*
D02*
G37*
G36*
X-380635D02*
X-389270D01*
Y400635D01*
X-380635D01*
Y409270D01*
D02*
G37*
G36*
X-370730Y399365D02*
X-379365D01*
Y390730D01*
X-370730D01*
Y399365D01*
D02*
G37*
G36*
X-380635D02*
X-389270D01*
Y390730D01*
X-380635D01*
Y399365D01*
D02*
G37*
G36*
X-378780Y389270D02*
X-379365D01*
Y380635D01*
X-370730D01*
Y381220D01*
X-371362Y383578D01*
X-372582Y385692D01*
X-374308Y387418D01*
X-376422Y388638D01*
X-378780Y389270D01*
D02*
G37*
G36*
X-380635D02*
X-381220D01*
X-383578Y388638D01*
X-385692Y387418D01*
X-387418Y385692D01*
X-388638Y383578D01*
X-389270Y381220D01*
Y380635D01*
X-380635D01*
Y389270D01*
D02*
G37*
G36*
X-370730Y379365D02*
X-379365D01*
Y370730D01*
X-378780D01*
X-376422Y371362D01*
X-374308Y372582D01*
X-372582Y374308D01*
X-371362Y376422D01*
X-370730Y378780D01*
Y379365D01*
D02*
G37*
G36*
X-380635D02*
X-389270D01*
Y378780D01*
X-388638Y376422D01*
X-387418Y374308D01*
X-385692Y372582D01*
X-383578Y371362D01*
X-381220Y370730D01*
X-380635D01*
Y379365D01*
D02*
G37*
G36*
X-548151Y398770D02*
X-551849D01*
X-555475Y398049D01*
X-558891Y396634D01*
X-561965Y394580D01*
X-564580Y391965D01*
X-566634Y388891D01*
X-568049Y385475D01*
X-568770Y381849D01*
Y378151D01*
X-568049Y374525D01*
X-566634Y371109D01*
X-564580Y368035D01*
X-561965Y365420D01*
X-558891Y363366D01*
X-555475Y361951D01*
X-551849Y361230D01*
X-548151D01*
X-544525Y361951D01*
X-541109Y363366D01*
X-538035Y365420D01*
X-535420Y368035D01*
X-533366Y371109D01*
X-531951Y374525D01*
X-531230Y378151D01*
Y381849D01*
X-531951Y385475D01*
X-533366Y388891D01*
X-535420Y391965D01*
X-538035Y394580D01*
X-541109Y396634D01*
X-544525Y398049D01*
X-548151Y398770D01*
D02*
G37*
G36*
X-378780Y369270D02*
X-379365D01*
Y360635D01*
X-370730D01*
Y361220D01*
X-371362Y363578D01*
X-372582Y365692D01*
X-374308Y367418D01*
X-376422Y368638D01*
X-378780Y369270D01*
D02*
G37*
G36*
X-380635D02*
X-381220D01*
X-383578Y368638D01*
X-385692Y367418D01*
X-387418Y365692D01*
X-388638Y363578D01*
X-389270Y361220D01*
Y360635D01*
X-380635D01*
Y369270D01*
D02*
G37*
G36*
X-370730Y359365D02*
X-379365D01*
Y350730D01*
X-378780D01*
X-376422Y351362D01*
X-374308Y352582D01*
X-372582Y354308D01*
X-371362Y356422D01*
X-370730Y358780D01*
Y359365D01*
D02*
G37*
G36*
X-380635D02*
X-389270D01*
Y358780D01*
X-388638Y356422D01*
X-387418Y354308D01*
X-385692Y352582D01*
X-383578Y351362D01*
X-381220Y350730D01*
X-380635D01*
Y359365D01*
D02*
G37*
G36*
X-378780Y349270D02*
X-379365D01*
Y340635D01*
X-370730D01*
Y341220D01*
X-371362Y343578D01*
X-372582Y345692D01*
X-374308Y347418D01*
X-376422Y348638D01*
X-378780Y349270D01*
D02*
G37*
G36*
X-380635D02*
X-381220D01*
X-383578Y348638D01*
X-385692Y347418D01*
X-387418Y345692D01*
X-388638Y343578D01*
X-389270Y341220D01*
Y340635D01*
X-380635D01*
Y349270D01*
D02*
G37*
G36*
X-370730Y339365D02*
X-379365D01*
Y330730D01*
X-378780D01*
X-376422Y331362D01*
X-374308Y332582D01*
X-372582Y334308D01*
X-371362Y336422D01*
X-370730Y338780D01*
Y339365D01*
D02*
G37*
G36*
X-380635D02*
X-389270D01*
Y338780D01*
X-388638Y336422D01*
X-387418Y334308D01*
X-385692Y332582D01*
X-383578Y331362D01*
X-381220Y330730D01*
X-380635D01*
Y339365D01*
D02*
G37*
G36*
X-511885Y342270D02*
X-512865D01*
Y330635D01*
X-501230D01*
Y331615D01*
X-502066Y334736D01*
X-503682Y337534D01*
X-505966Y339818D01*
X-508764Y341434D01*
X-511885Y342270D01*
D02*
G37*
G36*
X-544885D02*
X-545865D01*
Y330635D01*
X-534230D01*
Y331615D01*
X-535066Y334736D01*
X-536682Y337534D01*
X-538966Y339818D01*
X-541764Y341434D01*
X-544885Y342270D01*
D02*
G37*
G36*
X-547135D02*
X-548115D01*
X-551236Y341434D01*
X-554034Y339818D01*
X-556318Y337534D01*
X-557934Y334736D01*
X-558770Y331615D01*
Y330635D01*
X-547135D01*
Y342270D01*
D02*
G37*
G36*
X-514135D02*
X-515115D01*
X-518236Y341434D01*
X-521034Y339818D01*
X-523318Y337534D01*
X-524934Y334736D01*
X-525770Y331615D01*
Y330635D01*
X-514135D01*
Y342270D01*
D02*
G37*
G36*
X-378780Y329270D02*
X-379365D01*
Y320635D01*
X-370730D01*
Y321220D01*
X-371362Y323578D01*
X-372582Y325692D01*
X-374308Y327418D01*
X-376422Y328638D01*
X-378780Y329270D01*
D02*
G37*
G36*
X-380635D02*
X-381220D01*
X-383578Y328638D01*
X-385692Y327418D01*
X-387418Y325692D01*
X-388638Y323578D01*
X-389270Y321220D01*
Y320635D01*
X-380635D01*
Y329270D01*
D02*
G37*
G36*
X-501230Y329365D02*
X-512865D01*
Y317730D01*
X-511885D01*
X-508764Y318566D01*
X-505966Y320182D01*
X-503682Y322466D01*
X-502066Y325264D01*
X-501230Y328385D01*
Y329365D01*
D02*
G37*
G36*
X-514135D02*
X-525770D01*
Y328385D01*
X-524934Y325264D01*
X-523318Y322466D01*
X-521034Y320182D01*
X-518236Y318566D01*
X-515115Y317730D01*
X-514135D01*
Y329365D01*
D02*
G37*
G36*
X-534230D02*
X-545865D01*
Y317730D01*
X-544885D01*
X-541764Y318566D01*
X-538966Y320182D01*
X-536682Y322466D01*
X-535066Y325264D01*
X-534230Y328385D01*
Y329365D01*
D02*
G37*
G36*
X-547135D02*
X-558770D01*
Y328385D01*
X-557934Y325264D01*
X-556318Y322466D01*
X-554034Y320182D01*
X-551236Y318566D01*
X-548115Y317730D01*
X-547135D01*
Y329365D01*
D02*
G37*
G36*
X-370730Y319365D02*
X-379365D01*
Y310730D01*
X-378780D01*
X-376422Y311362D01*
X-374308Y312582D01*
X-372582Y314308D01*
X-371362Y316422D01*
X-370730Y318780D01*
Y319365D01*
D02*
G37*
G36*
X-380635D02*
X-389270D01*
Y318780D01*
X-388638Y316422D01*
X-387418Y314308D01*
X-385692Y312582D01*
X-383578Y311362D01*
X-381220Y310730D01*
X-380635D01*
Y319365D01*
D02*
G37*
G36*
X-378780Y309270D02*
X-379365D01*
Y300635D01*
X-370730D01*
Y301220D01*
X-371362Y303578D01*
X-372582Y305692D01*
X-374308Y307418D01*
X-376422Y308638D01*
X-378780Y309270D01*
D02*
G37*
G36*
X-380635D02*
X-381220D01*
X-383578Y308638D01*
X-385692Y307418D01*
X-387418Y305692D01*
X-388638Y303578D01*
X-389270Y301220D01*
Y300635D01*
X-380635D01*
Y309270D01*
D02*
G37*
G36*
X-370730Y299365D02*
X-379365D01*
Y290730D01*
X-378780D01*
X-376422Y291362D01*
X-374308Y292582D01*
X-372582Y294308D01*
X-371362Y296422D01*
X-370730Y298780D01*
Y299365D01*
D02*
G37*
G36*
X-380635D02*
X-389270D01*
Y298780D01*
X-388638Y296422D01*
X-387418Y294308D01*
X-385692Y292582D01*
X-383578Y291362D01*
X-381220Y290730D01*
X-380635D01*
Y299365D01*
D02*
G37*
G36*
X-378780Y289270D02*
X-379365D01*
Y280635D01*
X-370730D01*
Y281220D01*
X-371362Y283578D01*
X-372582Y285692D01*
X-374308Y287418D01*
X-376422Y288638D01*
X-378780Y289270D01*
D02*
G37*
G36*
X-380635D02*
X-381220D01*
X-383578Y288638D01*
X-385692Y287418D01*
X-387418Y285692D01*
X-388638Y283578D01*
X-389270Y281220D01*
Y280635D01*
X-380635D01*
Y289270D01*
D02*
G37*
G36*
X-370730Y279365D02*
X-379365D01*
Y270730D01*
X-378780D01*
X-376422Y271362D01*
X-374308Y272582D01*
X-372582Y274308D01*
X-371362Y276422D01*
X-370730Y278780D01*
Y279365D01*
D02*
G37*
G36*
X-380635D02*
X-389270D01*
Y278780D01*
X-388638Y276422D01*
X-387418Y274308D01*
X-385692Y272582D01*
X-383578Y271362D01*
X-381220Y270730D01*
X-380635D01*
Y279365D01*
D02*
G37*
G36*
X-378780Y269270D02*
X-379365D01*
Y260635D01*
X-370730D01*
Y261220D01*
X-371362Y263578D01*
X-372582Y265692D01*
X-374308Y267418D01*
X-376422Y268638D01*
X-378780Y269270D01*
D02*
G37*
G36*
X-380635D02*
X-381220D01*
X-383578Y268638D01*
X-385692Y267418D01*
X-387418Y265692D01*
X-388638Y263578D01*
X-389270Y261220D01*
Y260635D01*
X-380635D01*
Y269270D01*
D02*
G37*
G36*
X-370730Y259365D02*
X-379365D01*
Y250730D01*
X-378780D01*
X-376422Y251362D01*
X-374308Y252582D01*
X-372582Y254308D01*
X-371362Y256422D01*
X-370730Y258780D01*
Y259365D01*
D02*
G37*
G36*
X-380635D02*
X-389270D01*
Y258780D01*
X-388638Y256422D01*
X-387418Y254308D01*
X-385692Y252582D01*
X-383578Y251362D01*
X-381220Y250730D01*
X-380635D01*
Y259365D01*
D02*
G37*
G36*
X-378780Y249270D02*
X-379365D01*
Y240635D01*
X-370730D01*
Y241220D01*
X-371362Y243578D01*
X-372582Y245692D01*
X-374308Y247418D01*
X-376422Y248638D01*
X-378780Y249270D01*
D02*
G37*
G36*
X-380635D02*
X-381220D01*
X-383578Y248638D01*
X-385692Y247418D01*
X-387418Y245692D01*
X-388638Y243578D01*
X-389270Y241220D01*
Y240635D01*
X-380635D01*
Y249270D01*
D02*
G37*
G36*
X-370730Y239365D02*
X-379365D01*
Y230730D01*
X-378780D01*
X-376422Y231362D01*
X-374308Y232582D01*
X-372582Y234308D01*
X-371362Y236422D01*
X-370730Y238780D01*
Y239365D01*
D02*
G37*
G36*
X-380635D02*
X-389270D01*
Y238780D01*
X-388638Y236422D01*
X-387418Y234308D01*
X-385692Y232582D01*
X-383578Y231362D01*
X-381220Y230730D01*
X-380635D01*
Y239365D01*
D02*
G37*
G36*
X-378780Y229270D02*
X-379365D01*
Y220635D01*
X-370730D01*
Y221220D01*
X-371362Y223578D01*
X-372582Y225692D01*
X-374308Y227418D01*
X-376422Y228638D01*
X-378780Y229270D01*
D02*
G37*
G36*
X-380635D02*
X-381220D01*
X-383578Y228638D01*
X-385692Y227418D01*
X-387418Y225692D01*
X-388638Y223578D01*
X-389270Y221220D01*
Y220635D01*
X-380635D01*
Y229270D01*
D02*
G37*
G36*
X-370730Y219365D02*
X-379365D01*
Y210730D01*
X-378780D01*
X-376422Y211362D01*
X-374308Y212582D01*
X-372582Y214308D01*
X-371362Y216422D01*
X-370730Y218780D01*
Y219365D01*
D02*
G37*
G36*
X-380635D02*
X-389270D01*
Y218780D01*
X-388638Y216422D01*
X-387418Y214308D01*
X-385692Y212582D01*
X-383578Y211362D01*
X-381220Y210730D01*
X-380635D01*
Y219365D01*
D02*
G37*
G36*
X-378780Y209270D02*
X-379365D01*
Y200635D01*
X-370730D01*
Y201220D01*
X-371362Y203578D01*
X-372582Y205692D01*
X-374308Y207418D01*
X-376422Y208638D01*
X-378780Y209270D01*
D02*
G37*
G36*
X-380635D02*
X-381220D01*
X-383578Y208638D01*
X-385692Y207418D01*
X-387418Y205692D01*
X-388638Y203578D01*
X-389270Y201220D01*
Y200635D01*
X-380635D01*
Y209270D01*
D02*
G37*
G36*
X-370730Y199365D02*
X-379365D01*
Y190730D01*
X-378780D01*
X-376422Y191362D01*
X-374308Y192582D01*
X-372582Y194308D01*
X-371362Y196422D01*
X-370730Y198780D01*
Y199365D01*
D02*
G37*
G36*
X-380635D02*
X-389270D01*
Y198780D01*
X-388638Y196422D01*
X-387418Y194308D01*
X-385692Y192582D01*
X-383578Y191362D01*
X-381220Y190730D01*
X-380635D01*
Y199365D01*
D02*
G37*
G36*
X-378780Y189270D02*
X-379365D01*
Y180635D01*
X-370730D01*
Y181220D01*
X-371362Y183578D01*
X-372582Y185692D01*
X-374308Y187418D01*
X-376422Y188638D01*
X-378780Y189270D01*
D02*
G37*
G36*
X-380635D02*
X-381220D01*
X-383578Y188638D01*
X-385692Y187418D01*
X-387418Y185692D01*
X-388638Y183578D01*
X-389270Y181220D01*
Y180635D01*
X-380635D01*
Y189270D01*
D02*
G37*
G36*
X-370730Y179365D02*
X-380000D01*
X-389270D01*
Y178780D01*
X-388638Y176422D01*
X-387418Y174308D01*
X-385692Y172582D01*
X-384320Y171790D01*
X-384660Y170520D01*
X-386529D01*
X-389527Y169923D01*
X-392351Y168754D01*
X-394893Y167055D01*
X-397055Y164893D01*
X-398754Y162351D01*
X-399924Y159527D01*
X-400520Y156529D01*
Y153471D01*
X-399924Y150473D01*
X-398754Y147648D01*
X-397055Y145107D01*
X-394893Y142945D01*
X-392351Y141246D01*
X-389527Y140077D01*
X-386529Y139480D01*
X-383471D01*
X-380473Y140077D01*
X-377649Y141246D01*
X-375107Y142945D01*
X-372945Y145107D01*
X-371246Y147648D01*
X-370076Y150473D01*
X-369480Y153471D01*
Y156529D01*
X-370076Y159527D01*
X-371246Y162351D01*
X-372945Y164893D01*
X-375107Y167055D01*
X-377649Y168754D01*
X-379354Y169460D01*
X-379101Y170730D01*
X-378780D01*
X-376422Y171362D01*
X-374308Y172582D01*
X-372582Y174308D01*
X-371362Y176422D01*
X-370730Y178780D01*
Y179365D01*
D02*
G37*
G36*
X-575000Y131393D02*
X-579365D01*
Y120635D01*
X-568607D01*
Y125000D01*
X-569094Y127446D01*
X-570480Y129520D01*
X-572554Y130906D01*
X-575000Y131393D01*
D02*
G37*
G36*
X-580635D02*
X-585000D01*
X-587447Y130906D01*
X-589520Y129520D01*
X-590906Y127446D01*
X-591393Y125000D01*
Y120635D01*
X-580635D01*
Y131393D01*
D02*
G37*
G36*
X-568607Y119365D02*
X-579365D01*
Y108607D01*
X-575000D01*
X-572554Y109094D01*
X-570480Y110480D01*
X-569094Y112554D01*
X-568607Y115000D01*
Y119365D01*
D02*
G37*
G36*
X-580635D02*
X-591393D01*
Y115000D01*
X-590906Y112554D01*
X-589520Y110480D01*
X-587447Y109094D01*
X-585000Y108607D01*
X-580635D01*
Y119365D01*
D02*
G37*
G36*
X-575000Y861393D02*
X-579365D01*
Y850635D01*
X-568607D01*
Y855000D01*
X-569094Y857446D01*
X-570480Y859520D01*
X-572554Y860906D01*
X-575000Y861393D01*
D02*
G37*
G36*
X-580635D02*
X-585000D01*
X-587447Y860906D01*
X-589520Y859520D01*
X-590906Y857446D01*
X-591393Y855000D01*
Y850635D01*
X-580635D01*
Y861393D01*
D02*
G37*
G36*
X-568607Y849365D02*
X-579365D01*
Y838607D01*
X-575000D01*
X-572554Y839094D01*
X-570480Y840480D01*
X-569094Y842554D01*
X-568607Y845000D01*
Y849365D01*
D02*
G37*
G36*
X-580635D02*
X-591393D01*
Y845000D01*
X-590906Y842554D01*
X-589520Y840480D01*
X-587447Y839094D01*
X-585000Y838607D01*
X-580635D01*
Y849365D01*
D02*
G37*
G36*
X-403397Y841270D02*
X-406603D01*
X-409746Y840645D01*
X-412707Y839418D01*
X-415372Y837638D01*
X-417638Y835371D01*
X-419418Y832707D01*
X-420645Y829746D01*
X-421270Y826602D01*
Y823398D01*
X-420645Y820254D01*
X-419418Y817293D01*
X-417638Y814629D01*
X-415372Y812362D01*
X-412707Y810582D01*
X-409746Y809355D01*
X-406603Y808730D01*
X-403397D01*
X-400254Y809355D01*
X-397293Y810582D01*
X-394628Y812362D01*
X-392362Y814629D01*
X-390582Y817293D01*
X-389355Y820254D01*
X-388730Y823398D01*
Y826602D01*
X-389355Y829746D01*
X-390582Y832707D01*
X-392362Y835371D01*
X-394628Y837638D01*
X-397293Y839418D01*
X-400254Y840645D01*
X-403397Y841270D01*
D02*
G37*
G36*
X-370730Y809270D02*
X-379365D01*
Y800635D01*
X-370730D01*
Y809270D01*
D02*
G37*
G36*
X-380635D02*
X-389270D01*
Y800635D01*
X-380635D01*
Y809270D01*
D02*
G37*
G36*
X-370730Y799365D02*
X-379365D01*
Y790730D01*
X-370730D01*
Y799365D01*
D02*
G37*
G36*
X-380635D02*
X-389270D01*
Y790730D01*
X-380635D01*
Y799365D01*
D02*
G37*
G36*
X-378780Y789270D02*
X-379365D01*
Y780635D01*
X-370730D01*
Y781220D01*
X-371362Y783578D01*
X-372582Y785692D01*
X-374308Y787418D01*
X-376422Y788638D01*
X-378780Y789270D01*
D02*
G37*
G36*
X-380635D02*
X-381220D01*
X-383578Y788638D01*
X-385692Y787418D01*
X-387418Y785692D01*
X-388638Y783578D01*
X-389270Y781220D01*
Y780635D01*
X-380635D01*
Y789270D01*
D02*
G37*
G36*
X-370730Y779365D02*
X-379365D01*
Y770730D01*
X-378780D01*
X-376422Y771362D01*
X-374308Y772582D01*
X-372582Y774308D01*
X-371362Y776422D01*
X-370730Y778780D01*
Y779365D01*
D02*
G37*
G36*
X-380635D02*
X-389270D01*
Y778780D01*
X-388638Y776422D01*
X-387418Y774308D01*
X-385692Y772582D01*
X-383578Y771362D01*
X-381220Y770730D01*
X-380635D01*
Y779365D01*
D02*
G37*
G36*
X-378780Y769270D02*
X-379365D01*
Y760635D01*
X-370730D01*
Y761220D01*
X-371362Y763578D01*
X-372582Y765692D01*
X-374308Y767418D01*
X-376422Y768638D01*
X-378780Y769270D01*
D02*
G37*
G36*
X-380635D02*
X-381220D01*
X-383578Y768638D01*
X-385692Y767418D01*
X-387418Y765692D01*
X-388638Y763578D01*
X-389270Y761220D01*
Y760635D01*
X-380635D01*
Y769270D01*
D02*
G37*
G36*
X-370730Y759365D02*
X-379365D01*
Y750730D01*
X-378780D01*
X-376422Y751362D01*
X-374308Y752582D01*
X-372582Y754308D01*
X-371362Y756422D01*
X-370730Y758780D01*
Y759365D01*
D02*
G37*
G36*
X-380635D02*
X-389270D01*
Y758780D01*
X-388638Y756422D01*
X-387418Y754308D01*
X-385692Y752582D01*
X-383578Y751362D01*
X-381220Y750730D01*
X-380635D01*
Y759365D01*
D02*
G37*
G36*
X-378780Y749270D02*
X-379365D01*
Y740635D01*
X-370730D01*
Y741220D01*
X-371362Y743578D01*
X-372582Y745692D01*
X-374308Y747418D01*
X-376422Y748638D01*
X-378780Y749270D01*
D02*
G37*
G36*
X-380635D02*
X-381220D01*
X-383578Y748638D01*
X-385692Y747418D01*
X-387418Y745692D01*
X-388638Y743578D01*
X-389270Y741220D01*
Y740635D01*
X-380635D01*
Y749270D01*
D02*
G37*
G36*
X-370730Y739365D02*
X-379365D01*
Y730730D01*
X-378780D01*
X-376422Y731362D01*
X-374308Y732582D01*
X-372582Y734308D01*
X-371362Y736422D01*
X-370730Y738780D01*
Y739365D01*
D02*
G37*
G36*
X-380635D02*
X-389270D01*
Y738780D01*
X-388638Y736422D01*
X-387418Y734308D01*
X-385692Y732582D01*
X-383578Y731362D01*
X-381220Y730730D01*
X-380635D01*
Y739365D01*
D02*
G37*
G36*
X-378780Y729270D02*
X-379365D01*
Y720635D01*
X-370730D01*
Y721220D01*
X-371362Y723578D01*
X-372582Y725692D01*
X-374308Y727418D01*
X-376422Y728638D01*
X-378780Y729270D01*
D02*
G37*
G36*
X-380635D02*
X-381220D01*
X-383578Y728638D01*
X-385692Y727418D01*
X-387418Y725692D01*
X-388638Y723578D01*
X-389270Y721220D01*
Y720635D01*
X-380635D01*
Y729270D01*
D02*
G37*
G36*
X-370730Y719365D02*
X-379365D01*
Y710730D01*
X-378780D01*
X-376422Y711362D01*
X-374308Y712582D01*
X-372582Y714308D01*
X-371362Y716422D01*
X-370730Y718780D01*
Y719365D01*
D02*
G37*
G36*
X-380635D02*
X-389270D01*
Y718780D01*
X-388638Y716422D01*
X-387418Y714308D01*
X-385692Y712582D01*
X-383578Y711362D01*
X-381220Y710730D01*
X-380635D01*
Y719365D01*
D02*
G37*
G36*
X-378780Y709270D02*
X-379365D01*
Y700635D01*
X-370730D01*
Y701220D01*
X-371362Y703578D01*
X-372582Y705692D01*
X-374308Y707418D01*
X-376422Y708638D01*
X-378780Y709270D01*
D02*
G37*
G36*
X-380635D02*
X-381220D01*
X-383578Y708638D01*
X-385692Y707418D01*
X-387418Y705692D01*
X-388638Y703578D01*
X-389270Y701220D01*
Y700635D01*
X-380635D01*
Y709270D01*
D02*
G37*
G36*
X-370730Y699365D02*
X-379365D01*
Y690730D01*
X-378780D01*
X-376422Y691362D01*
X-374308Y692582D01*
X-372582Y694308D01*
X-371362Y696422D01*
X-370730Y698780D01*
Y699365D01*
D02*
G37*
G36*
X-380635D02*
X-389270D01*
Y698780D01*
X-388638Y696422D01*
X-387418Y694308D01*
X-385692Y692582D01*
X-383578Y691362D01*
X-381220Y690730D01*
X-380635D01*
Y699365D01*
D02*
G37*
G36*
X-378780Y689270D02*
X-379365D01*
Y680635D01*
X-370730D01*
Y681220D01*
X-371362Y683578D01*
X-372582Y685692D01*
X-374308Y687418D01*
X-376422Y688638D01*
X-378780Y689270D01*
D02*
G37*
G36*
X-380635D02*
X-381220D01*
X-383578Y688638D01*
X-385692Y687418D01*
X-387418Y685692D01*
X-388638Y683578D01*
X-389270Y681220D01*
Y680635D01*
X-380635D01*
Y689270D01*
D02*
G37*
G36*
X-370730Y679365D02*
X-379365D01*
Y670730D01*
X-378780D01*
X-376422Y671362D01*
X-374308Y672582D01*
X-372582Y674308D01*
X-371362Y676422D01*
X-370730Y678780D01*
Y679365D01*
D02*
G37*
G36*
X-380635D02*
X-389270D01*
Y678780D01*
X-388638Y676422D01*
X-387418Y674308D01*
X-385692Y672582D01*
X-383578Y671362D01*
X-381220Y670730D01*
X-380635D01*
Y679365D01*
D02*
G37*
G36*
X-378780Y669270D02*
X-379365D01*
Y660635D01*
X-370730D01*
Y661220D01*
X-371362Y663578D01*
X-372582Y665692D01*
X-374308Y667418D01*
X-376422Y668638D01*
X-378780Y669270D01*
D02*
G37*
G36*
X-380635D02*
X-381220D01*
X-383578Y668638D01*
X-385692Y667418D01*
X-387418Y665692D01*
X-388638Y663578D01*
X-389270Y661220D01*
Y660635D01*
X-380635D01*
Y669270D01*
D02*
G37*
G36*
X-370730Y659365D02*
X-379365D01*
Y650730D01*
X-378780D01*
X-376422Y651362D01*
X-374308Y652582D01*
X-372582Y654308D01*
X-371362Y656422D01*
X-370730Y658780D01*
Y659365D01*
D02*
G37*
G36*
X-380635D02*
X-389270D01*
Y658780D01*
X-388638Y656422D01*
X-387418Y654308D01*
X-385692Y652582D01*
X-383578Y651362D01*
X-381220Y650730D01*
X-380635D01*
Y659365D01*
D02*
G37*
G36*
X-378780Y649270D02*
X-379365D01*
Y640635D01*
X-370730D01*
Y641220D01*
X-371362Y643578D01*
X-372582Y645692D01*
X-374308Y647418D01*
X-376422Y648638D01*
X-378780Y649270D01*
D02*
G37*
G36*
X-380635D02*
X-381220D01*
X-383578Y648638D01*
X-385692Y647418D01*
X-387418Y645692D01*
X-388638Y643578D01*
X-389270Y641220D01*
Y640635D01*
X-380635D01*
Y649270D01*
D02*
G37*
G36*
X-370730Y639365D02*
X-379365D01*
Y630730D01*
X-378780D01*
X-376422Y631362D01*
X-374308Y632582D01*
X-372582Y634308D01*
X-371362Y636422D01*
X-370730Y638780D01*
Y639365D01*
D02*
G37*
G36*
X-380635D02*
X-389270D01*
Y638780D01*
X-388638Y636422D01*
X-387418Y634308D01*
X-385692Y632582D01*
X-383578Y631362D01*
X-381220Y630730D01*
X-380635D01*
Y639365D01*
D02*
G37*
G36*
X-511885Y642270D02*
X-512865D01*
Y630635D01*
X-501230D01*
Y631615D01*
X-502066Y634736D01*
X-503682Y637534D01*
X-505966Y639818D01*
X-508764Y641434D01*
X-511885Y642270D01*
D02*
G37*
G36*
X-544885D02*
X-545865D01*
Y630635D01*
X-534230D01*
Y631615D01*
X-535066Y634736D01*
X-536682Y637534D01*
X-538966Y639818D01*
X-541764Y641434D01*
X-544885Y642270D01*
D02*
G37*
G36*
X-514135D02*
X-515115D01*
X-518236Y641434D01*
X-521034Y639818D01*
X-523318Y637534D01*
X-524934Y634736D01*
X-525770Y631615D01*
Y630635D01*
X-514135D01*
Y642270D01*
D02*
G37*
G36*
X-547135D02*
X-548115D01*
X-551236Y641434D01*
X-554034Y639818D01*
X-556318Y637534D01*
X-557934Y634736D01*
X-558770Y631615D01*
Y630635D01*
X-547135D01*
Y642270D01*
D02*
G37*
G36*
X-378780Y629270D02*
X-379365D01*
Y620635D01*
X-370730D01*
Y621220D01*
X-371362Y623578D01*
X-372582Y625692D01*
X-374308Y627418D01*
X-376422Y628638D01*
X-378780Y629270D01*
D02*
G37*
G36*
X-380635D02*
X-381220D01*
X-383578Y628638D01*
X-385692Y627418D01*
X-387418Y625692D01*
X-388638Y623578D01*
X-389270Y621220D01*
Y620635D01*
X-380635D01*
Y629270D01*
D02*
G37*
G36*
X-501230Y629365D02*
X-512865D01*
Y617730D01*
X-511885D01*
X-508764Y618566D01*
X-505966Y620182D01*
X-503682Y622466D01*
X-502066Y625264D01*
X-501230Y628385D01*
Y629365D01*
D02*
G37*
G36*
X-514135D02*
X-525770D01*
Y628385D01*
X-524934Y625264D01*
X-523318Y622466D01*
X-521034Y620182D01*
X-518236Y618566D01*
X-515115Y617730D01*
X-514135D01*
Y629365D01*
D02*
G37*
G36*
X-534230D02*
X-545865D01*
Y617730D01*
X-544885D01*
X-541764Y618566D01*
X-538966Y620182D01*
X-536682Y622466D01*
X-535066Y625264D01*
X-534230Y628385D01*
Y629365D01*
D02*
G37*
G36*
X-547135D02*
X-558770D01*
Y628385D01*
X-557934Y625264D01*
X-556318Y622466D01*
X-554034Y620182D01*
X-551236Y618566D01*
X-548115Y617730D01*
X-547135D01*
Y629365D01*
D02*
G37*
G36*
X-370730Y619365D02*
X-379365D01*
Y610730D01*
X-378780D01*
X-376422Y611362D01*
X-374308Y612582D01*
X-372582Y614308D01*
X-371362Y616422D01*
X-370730Y618780D01*
Y619365D01*
D02*
G37*
G36*
X-380635D02*
X-389270D01*
Y618780D01*
X-388638Y616422D01*
X-387418Y614308D01*
X-385692Y612582D01*
X-383578Y611362D01*
X-381220Y610730D01*
X-380635D01*
Y619365D01*
D02*
G37*
G36*
X-378780Y609270D02*
X-379365D01*
Y600635D01*
X-370730D01*
Y601220D01*
X-371362Y603578D01*
X-372582Y605692D01*
X-374308Y607418D01*
X-376422Y608638D01*
X-378780Y609270D01*
D02*
G37*
G36*
X-380635D02*
X-381220D01*
X-383578Y608638D01*
X-385692Y607418D01*
X-387418Y605692D01*
X-388638Y603578D01*
X-389270Y601220D01*
Y600635D01*
X-380635D01*
Y609270D01*
D02*
G37*
G36*
X-370730Y599365D02*
X-379365D01*
Y590730D01*
X-378780D01*
X-376422Y591362D01*
X-374308Y592582D01*
X-372582Y594308D01*
X-371362Y596422D01*
X-370730Y598780D01*
Y599365D01*
D02*
G37*
G36*
X-380635D02*
X-389270D01*
Y598780D01*
X-388638Y596422D01*
X-387418Y594308D01*
X-385692Y592582D01*
X-383578Y591362D01*
X-381220Y590730D01*
X-380635D01*
Y599365D01*
D02*
G37*
G36*
X-378780Y589270D02*
X-379365D01*
Y580635D01*
X-370730D01*
Y581220D01*
X-371362Y583578D01*
X-372582Y585692D01*
X-374308Y587418D01*
X-376422Y588638D01*
X-378780Y589270D01*
D02*
G37*
G36*
X-380635D02*
X-381220D01*
X-383578Y588638D01*
X-385692Y587418D01*
X-387418Y585692D01*
X-388638Y583578D01*
X-389270Y581220D01*
Y580635D01*
X-380635D01*
Y589270D01*
D02*
G37*
G36*
X-548151Y598770D02*
X-551849D01*
X-555475Y598049D01*
X-558891Y596634D01*
X-561965Y594580D01*
X-564580Y591965D01*
X-566634Y588891D01*
X-568049Y585475D01*
X-568770Y581849D01*
Y578151D01*
X-568049Y574525D01*
X-566634Y571109D01*
X-564580Y568035D01*
X-561965Y565420D01*
X-558891Y563366D01*
X-555475Y561951D01*
X-551849Y561230D01*
X-548151D01*
X-544525Y561951D01*
X-541109Y563366D01*
X-538035Y565420D01*
X-535420Y568035D01*
X-533366Y571109D01*
X-531951Y574525D01*
X-531230Y578151D01*
Y581849D01*
X-531951Y585475D01*
X-533366Y588891D01*
X-535420Y591965D01*
X-538035Y594580D01*
X-541109Y596634D01*
X-544525Y598049D01*
X-548151Y598770D01*
D02*
G37*
G36*
X-370730Y579365D02*
X-380000D01*
X-389270D01*
Y578780D01*
X-388638Y576422D01*
X-387418Y574308D01*
X-385692Y572582D01*
X-384320Y571790D01*
X-384660Y570520D01*
X-386529D01*
X-389527Y569924D01*
X-392351Y568754D01*
X-394893Y567055D01*
X-397055Y564893D01*
X-398754Y562351D01*
X-399924Y559527D01*
X-400520Y556529D01*
Y553471D01*
X-399924Y550473D01*
X-398754Y547649D01*
X-397055Y545107D01*
X-394893Y542945D01*
X-392351Y541246D01*
X-389527Y540076D01*
X-386529Y539480D01*
X-383471D01*
X-380473Y540076D01*
X-377649Y541246D01*
X-375107Y542945D01*
X-372945Y545107D01*
X-371246Y547649D01*
X-370076Y550473D01*
X-369480Y553471D01*
Y556529D01*
X-370076Y559527D01*
X-371246Y562351D01*
X-372945Y564893D01*
X-375107Y567055D01*
X-377649Y568754D01*
X-379354Y569460D01*
X-379101Y570730D01*
X-378780D01*
X-376422Y571362D01*
X-374308Y572582D01*
X-372582Y574308D01*
X-371362Y576422D01*
X-370730Y578780D01*
Y579365D01*
D02*
G37*
G36*
X-560000Y526367D02*
X-569365D01*
Y505635D01*
X-548633D01*
Y515000D01*
X-549020Y517942D01*
X-550156Y520684D01*
X-551962Y523038D01*
X-554316Y524844D01*
X-557058Y525980D01*
X-560000Y526367D01*
D02*
G37*
G36*
X-570635D02*
X-580000D01*
X-582942Y525980D01*
X-585684Y524844D01*
X-588038Y523038D01*
X-589844Y520684D01*
X-590980Y517942D01*
X-591367Y515000D01*
Y505635D01*
X-570635D01*
Y526367D01*
D02*
G37*
G36*
X-453730Y523270D02*
X-486270D01*
Y504730D01*
X-453730D01*
Y523270D01*
D02*
G37*
G36*
X-304480Y511020D02*
X-335020D01*
Y498480D01*
X-304480D01*
Y511020D01*
D02*
G37*
%LPD*%
D12*
X-430592Y580000D02*
X-380000D01*
X-492500Y518092D02*
X-430592Y580000D01*
X-380000D02*
X-353250Y553250D01*
D13*
X-470000Y446000D02*
D03*
Y514000D02*
D03*
D14*
X-492500Y470000D02*
D03*
Y490000D02*
D03*
D15*
X-353250Y473750D02*
D03*
Y486250D02*
D03*
D16*
X-319750Y504750D02*
D03*
Y455250D02*
D03*
D25*
X-492500Y490000D02*
Y518092D01*
X-353250Y486250D02*
Y553250D01*
D26*
X-513500Y630000D02*
D03*
X-546500D02*
D03*
X-513500Y330000D02*
D03*
X-546500D02*
D03*
D27*
X-385000Y555000D02*
D03*
Y155000D02*
D03*
D28*
X-405000Y825000D02*
D03*
Y425000D02*
D03*
D29*
X-380000Y620000D02*
D03*
Y580000D02*
D03*
Y780000D02*
D03*
Y760000D02*
D03*
Y740000D02*
D03*
Y720000D02*
D03*
Y700000D02*
D03*
Y680000D02*
D03*
Y660000D02*
D03*
Y640000D02*
D03*
Y600000D02*
D03*
Y220000D02*
D03*
Y180000D02*
D03*
Y380000D02*
D03*
Y360000D02*
D03*
Y340000D02*
D03*
Y320000D02*
D03*
Y300000D02*
D03*
Y280000D02*
D03*
Y260000D02*
D03*
Y240000D02*
D03*
Y200000D02*
D03*
D30*
Y800000D02*
D03*
Y400000D02*
D03*
D31*
X-570000Y455000D02*
D03*
Y505000D02*
D03*
D32*
X-580000Y120000D02*
D03*
Y850000D02*
D03*
D33*
X-550000Y580000D02*
D03*
Y380000D02*
D03*
M02*
