G04*
G04 #@! TF.GenerationSoftware,Altium Limited,Altium Designer,24.9.1 (31)*
G04*
G04 Layer_Color=2752767*
%FSLAX44Y44*%
%MOMM*%
G71*
G04*
G04 #@! TF.SameCoordinates,B8B67402-8590-40DF-8F2E-53978CF21371*
G04*
G04*
G04 #@! TF.FilePolarity,Positive*
G04*
G01*
G75*
%ADD35C,0.1270*%
%ADD36C,0.1693*%
D35*
X-513500Y624920D02*
X-518580Y635080D01*
X-508420D01*
X-513500Y624920D01*
X-546500D02*
X-551580Y635080D01*
X-541420D01*
X-546500Y624920D01*
X-390080Y549920D02*
Y560080D01*
X-379920D01*
Y549920D01*
X-390080D01*
X-410080Y819920D02*
Y830080D01*
X-399920D01*
Y819920D01*
X-410080D01*
X-572540Y452460D02*
Y449920D01*
X-567460D01*
Y452460D01*
X-564920D01*
Y457540D01*
X-567460D01*
Y460080D01*
X-572540D01*
Y457540D01*
X-575080D01*
Y452460D01*
X-572540D01*
Y502460D02*
Y499920D01*
X-567460D01*
Y502460D01*
X-564920D01*
Y507540D01*
X-567460D01*
Y510080D01*
X-572540D01*
Y507540D01*
X-575080D01*
Y502460D01*
X-572540D01*
X-390080Y149920D02*
Y160080D01*
X-379920D01*
Y149920D01*
X-390080D01*
X-410080Y419920D02*
Y430080D01*
X-399920D01*
Y419920D01*
X-410080D01*
X-513500Y324920D02*
X-518580Y335080D01*
X-508420D01*
X-513500Y324920D01*
X-546500D02*
X-551580Y335080D01*
X-541420D01*
X-546500Y324920D01*
X-580000Y114920D02*
X-577460Y117460D01*
X-574920D01*
X-577460Y120000D01*
X-574920Y122540D01*
X-577460D01*
X-580000Y125080D01*
X-582540Y122540D01*
X-585080D01*
X-582540Y120000D01*
X-585080Y117460D01*
X-582540D01*
X-580000Y114920D01*
Y844920D02*
X-577460Y847460D01*
X-574920D01*
X-577460Y850000D01*
X-574920Y852540D01*
X-577460D01*
X-580000Y855080D01*
X-582540Y852540D01*
X-585080D01*
X-582540Y850000D01*
X-585080Y847460D01*
X-582540D01*
X-580000Y844920D01*
X-555080Y574920D02*
X-552540Y580000D01*
X-555080Y585080D01*
X-550000Y582540D01*
X-544920Y585080D01*
X-547460Y580000D01*
X-544920Y574920D01*
X-550000Y577460D01*
X-555080Y574920D01*
Y374920D02*
X-552540Y380000D01*
X-555080Y385080D01*
X-550000Y382540D01*
X-544920Y385080D01*
X-547460Y380000D01*
X-544920Y374920D01*
X-550000Y377460D01*
X-555080Y374920D01*
D36*
X-374920Y620000D02*
G03*
X-374920Y620000I-5080J0D01*
G01*
Y800000D02*
G03*
X-374920Y800000I-5080J0D01*
G01*
Y580000D02*
G03*
X-374920Y580000I-5080J0D01*
G01*
Y780000D02*
G03*
X-374920Y780000I-5080J0D01*
G01*
Y760000D02*
G03*
X-374920Y760000I-5080J0D01*
G01*
Y740000D02*
G03*
X-374920Y740000I-5080J0D01*
G01*
Y720000D02*
G03*
X-374920Y720000I-5080J0D01*
G01*
Y700000D02*
G03*
X-374920Y700000I-5080J0D01*
G01*
Y680000D02*
G03*
X-374920Y680000I-5080J0D01*
G01*
Y660000D02*
G03*
X-374920Y660000I-5080J0D01*
G01*
Y640000D02*
G03*
X-374920Y640000I-5080J0D01*
G01*
Y600000D02*
G03*
X-374920Y600000I-5080J0D01*
G01*
Y220000D02*
G03*
X-374920Y220000I-5080J0D01*
G01*
Y400000D02*
G03*
X-374920Y400000I-5080J0D01*
G01*
Y180000D02*
G03*
X-374920Y180000I-5080J0D01*
G01*
Y380000D02*
G03*
X-374920Y380000I-5080J0D01*
G01*
Y360000D02*
G03*
X-374920Y360000I-5080J0D01*
G01*
Y340000D02*
G03*
X-374920Y340000I-5080J0D01*
G01*
Y320000D02*
G03*
X-374920Y320000I-5080J0D01*
G01*
Y300000D02*
G03*
X-374920Y300000I-5080J0D01*
G01*
Y280000D02*
G03*
X-374920Y280000I-5080J0D01*
G01*
Y260000D02*
G03*
X-374920Y260000I-5080J0D01*
G01*
Y240000D02*
G03*
X-374920Y240000I-5080J0D01*
G01*
Y200000D02*
G03*
X-374920Y200000I-5080J0D01*
G01*
M02*
