G04*
G04 #@! TF.GenerationSoftware,Altium Limited,Altium Designer,24.9.1 (31)*
G04*
G04 Layer_Color=32896*
%FSLAX44Y44*%
%MOMM*%
G71*
G04*
G04 #@! TF.SameCoordinates,B8B67402-8590-40DF-8F2E-53978CF21371*
G04*
G04*
G04 #@! TF.FilePolarity,Positive*
G04*
G01*
G75*
%ADD12C,0.2540*%
D12*
X-435000Y869250D02*
X-365000D01*
X-435000Y510750D02*
X-365000D01*
X-435000D02*
Y869250D01*
X-365000Y510750D02*
Y869250D01*
X-435000Y469250D02*
X-365000D01*
X-435000Y110750D02*
X-365000D01*
X-435000D02*
Y469250D01*
X-365000Y110750D02*
Y469250D01*
X-463203Y427460D02*
X-455206D01*
Y423461D01*
X-456539Y422128D01*
X-461870D01*
X-463203Y423461D01*
Y427460D01*
X-460537Y418130D02*
Y415464D01*
X-459204Y414131D01*
X-455206D01*
Y418130D01*
X-456539Y419463D01*
X-457872Y418130D01*
Y414131D01*
X-460537Y411465D02*
X-456539D01*
X-455206Y410132D01*
Y406133D01*
X-460537D01*
X-452540Y400802D02*
Y399469D01*
X-453873Y398136D01*
X-460537D01*
Y402135D01*
X-459204Y403468D01*
X-456539D01*
X-455206Y402135D01*
Y398136D01*
X-463203Y395470D02*
X-455206D01*
X-459204D01*
X-460537Y394137D01*
Y391472D01*
X-459204Y390139D01*
X-455206D01*
X-461870Y386140D02*
X-460537D01*
Y387473D01*
Y384807D01*
Y386140D01*
X-456539D01*
X-455206Y384807D01*
X-463203Y372811D02*
X-455206D01*
Y368812D01*
X-456539Y367479D01*
X-457872D01*
X-459204Y368812D01*
Y372811D01*
Y368812D01*
X-460537Y367479D01*
X-461870D01*
X-463203Y368812D01*
Y372811D01*
X-455206Y363481D02*
Y360815D01*
X-456539Y359482D01*
X-459204D01*
X-460537Y360815D01*
Y363481D01*
X-459204Y364813D01*
X-456539D01*
X-455206Y363481D01*
X-460537Y355483D02*
Y352817D01*
X-459204Y351484D01*
X-455206D01*
Y355483D01*
X-456539Y356816D01*
X-457872Y355483D01*
Y351484D01*
X-460537Y348819D02*
X-455206D01*
X-457872D01*
X-459204Y347486D01*
X-460537Y346153D01*
Y344820D01*
X-463203Y335490D02*
X-455206D01*
Y339488D01*
X-456539Y340821D01*
X-459204D01*
X-460537Y339488D01*
Y335490D01*
X-463203Y319495D02*
Y324826D01*
X-459204D01*
Y322161D01*
Y324826D01*
X-455206D01*
Y315496D02*
Y312830D01*
X-456539Y311497D01*
X-459204D01*
X-460537Y312830D01*
Y315496D01*
X-459204Y316829D01*
X-456539D01*
X-455206Y315496D01*
X-460537Y308832D02*
X-455206D01*
X-457872D01*
X-459204Y307499D01*
X-460537Y306166D01*
Y304833D01*
X-463203Y292837D02*
X-455206D01*
X-459204D01*
Y287505D01*
X-463203D01*
X-455206D01*
Y280841D02*
Y283506D01*
X-456539Y284839D01*
X-459204D01*
X-460537Y283506D01*
Y280841D01*
X-459204Y279508D01*
X-457872D01*
Y284839D01*
X-460537Y271510D02*
Y275509D01*
X-459204Y276842D01*
X-456539D01*
X-455206Y275509D01*
Y271510D01*
X-461870Y267512D02*
X-460537D01*
Y268845D01*
Y266179D01*
Y267512D01*
X-456539D01*
X-455206Y266179D01*
Y260847D02*
Y258181D01*
X-456539Y256848D01*
X-459204D01*
X-460537Y258181D01*
Y260847D01*
X-459204Y262180D01*
X-456539D01*
X-455206Y260847D01*
X-460537Y254182D02*
X-455206D01*
X-457872D01*
X-459204Y252850D01*
X-460537Y251517D01*
Y250184D01*
X-463203Y238188D02*
X-457872D01*
X-455206Y235522D01*
X-457872Y232856D01*
X-463203D01*
X-455206Y224859D02*
Y230190D01*
X-460537Y224859D01*
X-461870D01*
X-463203Y226192D01*
Y228857D01*
X-461870Y230190D01*
X-455206Y222193D02*
Y219527D01*
Y220860D01*
X-463203D01*
X-461870Y222193D01*
X-460537Y206198D02*
Y203532D01*
X-459204Y202199D01*
X-455206D01*
Y206198D01*
X-456539Y207531D01*
X-457872Y206198D01*
Y202199D01*
X-455206Y199534D02*
X-460537D01*
Y195535D01*
X-459204Y194202D01*
X-455206D01*
X-463203Y186204D02*
X-455206D01*
Y190203D01*
X-456539Y191536D01*
X-459204D01*
X-460537Y190203D01*
Y186204D01*
X-463203Y175541D02*
X-455206D01*
X-457872Y172875D01*
X-455206Y170210D01*
X-463203D01*
X-455206Y167544D02*
X-460537D01*
X-463203Y164878D01*
X-460537Y162212D01*
X-455206D01*
X-459204D01*
Y167544D01*
X-461870Y159546D02*
X-463203Y158214D01*
Y155548D01*
X-461870Y154215D01*
X-460537D01*
X-459204Y155548D01*
Y156881D01*
Y155548D01*
X-457872Y154215D01*
X-456539D01*
X-455206Y155548D01*
Y158214D01*
X-456539Y159546D01*
X-463203Y146217D02*
Y151549D01*
X-459204D01*
X-460537Y148883D01*
Y147550D01*
X-459204Y146217D01*
X-456539D01*
X-455206Y147550D01*
Y150216D01*
X-456539Y151549D01*
X-461870Y143552D02*
X-463203Y142219D01*
Y139553D01*
X-461870Y138220D01*
X-460537D01*
X-459204Y139553D01*
Y140886D01*
Y139553D01*
X-457872Y138220D01*
X-456539D01*
X-455206Y139553D01*
Y142219D01*
X-456539Y143552D01*
X-463203Y135554D02*
Y130223D01*
X-461870D01*
X-456539Y135554D01*
X-455206D01*
X-578890Y623014D02*
Y617936D01*
Y620475D01*
X-566194D01*
X-563655Y617936D01*
Y615397D01*
X-566194Y612857D01*
X-563655Y635710D02*
X-578890D01*
X-571273Y628092D01*
Y638249D01*
X-578890Y323014D02*
Y317936D01*
Y320475D01*
X-566194D01*
X-563655Y317936D01*
Y315397D01*
X-566194Y312857D01*
X-576351Y328092D02*
X-578890Y330632D01*
Y335710D01*
X-576351Y338249D01*
X-573812D01*
X-571273Y335710D01*
Y333171D01*
Y335710D01*
X-568733Y338249D01*
X-566194D01*
X-563655Y335710D01*
Y330632D01*
X-566194Y328092D01*
M02*
