G04*
G04 #@! TF.GenerationSoftware,Altium Limited,Altium Designer,24.9.1 (31)*
G04*
G04 Layer_Color=255*
%FSLAX44Y44*%
%MOMM*%
G71*
G04*
G04 #@! TF.SameCoordinates,B8B67402-8590-40DF-8F2E-53978CF21371*
G04*
G04*
G04 #@! TF.FilePolarity,Positive*
G04*
G01*
G75*
%ADD13R,3.0000X1.6000*%
%ADD14R,5.5000X1.0000*%
%ADD15R,1.7000X0.6000*%
%ADD16R,2.8000X1.0000*%
%ADD26C,2.2000*%
%ADD27C,2.8500*%
%ADD28C,3.0000*%
%ADD29C,1.6000*%
%ADD30R,1.6000X1.6000*%
G04:AMPARAMS|DCode=31|XSize=4mm|YSize=4mm|CornerRadius=1mm|HoleSize=0mm|Usage=FLASHONLY|Rotation=0.000|XOffset=0mm|YOffset=0mm|HoleType=Round|Shape=RoundedRectangle|*
%AMROUNDEDRECTD31*
21,1,4.0000,2.0000,0,0,0.0*
21,1,2.0000,4.0000,0,0,0.0*
1,1,2.0000,1.0000,-1.0000*
1,1,2.0000,-1.0000,-1.0000*
1,1,2.0000,-1.0000,1.0000*
1,1,2.0000,1.0000,1.0000*
%
%ADD31ROUNDEDRECTD31*%
G04:AMPARAMS|DCode=32|XSize=2mm|YSize=2mm|CornerRadius=0.5mm|HoleSize=0mm|Usage=FLASHONLY|Rotation=0.000|XOffset=0mm|YOffset=0mm|HoleType=Round|Shape=RoundedRectangle|*
%AMROUNDEDRECTD32*
21,1,2.0000,1.0000,0,0,0.0*
21,1,1.0000,2.0000,0,0,0.0*
1,1,1.0000,0.5000,-0.5000*
1,1,1.0000,-0.5000,-0.5000*
1,1,1.0000,-0.5000,0.5000*
1,1,1.0000,0.5000,0.5000*
%
%ADD32ROUNDEDRECTD32*%
%ADD33C,3.5000*%
D13*
X-470000Y446000D02*
D03*
Y514000D02*
D03*
D14*
X-492500Y470000D02*
D03*
Y490000D02*
D03*
D15*
X-353250Y473750D02*
D03*
Y486250D02*
D03*
D16*
X-319750Y504750D02*
D03*
Y455250D02*
D03*
D26*
X-513500Y630000D02*
D03*
X-546500D02*
D03*
X-513500Y330000D02*
D03*
X-546500D02*
D03*
D27*
X-385000Y555000D02*
D03*
Y155000D02*
D03*
D28*
X-405000Y825000D02*
D03*
Y425000D02*
D03*
D29*
X-380000Y620000D02*
D03*
Y580000D02*
D03*
Y780000D02*
D03*
Y760000D02*
D03*
Y740000D02*
D03*
Y720000D02*
D03*
Y700000D02*
D03*
Y680000D02*
D03*
Y660000D02*
D03*
Y640000D02*
D03*
Y600000D02*
D03*
Y220000D02*
D03*
Y180000D02*
D03*
Y380000D02*
D03*
Y360000D02*
D03*
Y340000D02*
D03*
Y320000D02*
D03*
Y300000D02*
D03*
Y280000D02*
D03*
Y260000D02*
D03*
Y240000D02*
D03*
Y200000D02*
D03*
D30*
Y800000D02*
D03*
Y400000D02*
D03*
D31*
X-570000Y455000D02*
D03*
Y505000D02*
D03*
D32*
X-580000Y120000D02*
D03*
Y850000D02*
D03*
D33*
X-550000Y580000D02*
D03*
Y380000D02*
D03*
M02*
