G04*
G04 #@! TF.GenerationSoftware,Altium Limited,Altium Designer,24.9.1 (31)*
G04*
G04 Layer_Color=128*
%FSLAX44Y44*%
%MOMM*%
G71*
G04*
G04 #@! TF.SameCoordinates,B8B67402-8590-40DF-8F2E-53978CF21371*
G04*
G04*
G04 #@! TF.FilePolarity,Positive*
G04*
G01*
G75*
%ADD35C,0.1270*%
D35*
X-522500Y630000D02*
X-504500D01*
X-513500Y621000D02*
Y639000D01*
X-555500Y630000D02*
X-537500D01*
X-546500Y621000D02*
Y639000D01*
X-397500Y555000D02*
X-372500D01*
X-385000Y542500D02*
Y567500D01*
X-417500Y825000D02*
X-392500D01*
X-405000Y812500D02*
Y837500D01*
X-386000Y620000D02*
X-374000D01*
X-380000Y614000D02*
Y626000D01*
X-386000Y800000D02*
X-374000D01*
X-380000Y794000D02*
Y806000D01*
X-386000Y580000D02*
X-374000D01*
X-380000Y574000D02*
Y586000D01*
X-386000Y780000D02*
X-374000D01*
X-380000Y774000D02*
Y786000D01*
X-386000Y760000D02*
X-374000D01*
X-380000Y754000D02*
Y766000D01*
X-386000Y740000D02*
X-374000D01*
X-380000Y734000D02*
Y746000D01*
X-386000Y720000D02*
X-374000D01*
X-380000Y714000D02*
Y726000D01*
X-386000Y700000D02*
X-374000D01*
X-380000Y694000D02*
Y706000D01*
X-386000Y680000D02*
X-374000D01*
X-380000Y674000D02*
Y686000D01*
X-386000Y660000D02*
X-374000D01*
X-380000Y654000D02*
Y666000D01*
X-386000Y640000D02*
X-374000D01*
X-380000Y634000D02*
Y646000D01*
X-386000Y600000D02*
X-374000D01*
X-380000Y594000D02*
Y606000D01*
X-585000Y455000D02*
X-555000D01*
X-570000Y440000D02*
Y470000D01*
X-585000Y505000D02*
X-555000D01*
X-570000Y490000D02*
Y520000D01*
X-397500Y155000D02*
X-372500D01*
X-385000Y142500D02*
Y167500D01*
X-417500Y425000D02*
X-392500D01*
X-405000Y412500D02*
Y437500D01*
X-386000Y220000D02*
X-374000D01*
X-380000Y214000D02*
Y226000D01*
X-386000Y400000D02*
X-374000D01*
X-380000Y394000D02*
Y406000D01*
X-386000Y180000D02*
X-374000D01*
X-380000Y174000D02*
Y186000D01*
X-386000Y380000D02*
X-374000D01*
X-380000Y374000D02*
Y386000D01*
X-386000Y360000D02*
X-374000D01*
X-380000Y354000D02*
Y366000D01*
X-386000Y340000D02*
X-374000D01*
X-380000Y334000D02*
Y346000D01*
X-386000Y320000D02*
X-374000D01*
X-380000Y314000D02*
Y326000D01*
X-386000Y300000D02*
X-374000D01*
X-380000Y294000D02*
Y306000D01*
X-386000Y280000D02*
X-374000D01*
X-380000Y274000D02*
Y286000D01*
X-386000Y260000D02*
X-374000D01*
X-380000Y254000D02*
Y266000D01*
X-386000Y240000D02*
X-374000D01*
X-380000Y234000D02*
Y246000D01*
X-386000Y200000D02*
X-374000D01*
X-380000Y194000D02*
Y206000D01*
X-522500Y330000D02*
X-504500D01*
X-513500Y321000D02*
Y339000D01*
X-555500Y330000D02*
X-537500D01*
X-546500Y321000D02*
Y339000D01*
X-585000Y120000D02*
X-575000D01*
X-580000Y115000D02*
Y125000D01*
X-585000Y850000D02*
X-575000D01*
X-580000Y845000D02*
Y855000D01*
X-564500Y580000D02*
X-535500D01*
X-550000Y565500D02*
Y594500D01*
X-564500Y380000D02*
X-535500D01*
X-550000Y365500D02*
Y394500D01*
M02*
