G04*
G04 #@! TF.GenerationSoftware,Altium Limited,Altium Designer,24.9.1 (31)*
G04*
G04 Layer_Color=16711935*
%FSLAX44Y44*%
%MOMM*%
G71*
G04*
G04 #@! TF.SameCoordinates,B8B67402-8590-40DF-8F2E-53978CF21371*
G04*
G04*
G04 #@! TF.FilePolarity,Positive*
G04*
G01*
G75*
%ADD11C,0.2000*%
G36*
X-482358Y479233D02*
X-482367D01*
X-482385D01*
X-482422D01*
X-482478Y479223D01*
X-482533Y479214D01*
X-482598D01*
X-482755Y479186D01*
X-482922Y479159D01*
X-483088Y479103D01*
X-483236Y479048D01*
X-483301Y479011D01*
X-483356Y478965D01*
X-483365Y478955D01*
X-483393Y478918D01*
X-483439Y478863D01*
X-483486Y478789D01*
X-483541Y478687D01*
X-483578Y478576D01*
X-483615Y478438D01*
X-483624Y478289D01*
Y478234D01*
X-483615Y478179D01*
X-483606Y478095D01*
X-483587Y478012D01*
X-483569Y477920D01*
X-483532Y477827D01*
X-483486Y477735D01*
X-483476Y477726D01*
X-483458Y477698D01*
X-483421Y477661D01*
X-483384Y477605D01*
X-483319Y477559D01*
X-483255Y477504D01*
X-483181Y477457D01*
X-483088Y477421D01*
X-483079D01*
X-483042Y477402D01*
X-482977Y477393D01*
X-482894Y477374D01*
X-482783Y477356D01*
X-482644Y477346D01*
X-482478Y477328D01*
X-482284D01*
X-477873D01*
Y476477D01*
X-482237D01*
X-482247D01*
X-482274D01*
X-482311D01*
X-482367D01*
X-482441Y476487D01*
X-482515D01*
X-482691Y476505D01*
X-482894Y476524D01*
X-483106Y476561D01*
X-483301Y476616D01*
X-483486Y476681D01*
X-483495D01*
X-483504Y476690D01*
X-483560Y476718D01*
X-483633Y476764D01*
X-483735Y476829D01*
X-483837Y476921D01*
X-483948Y477023D01*
X-484059Y477152D01*
X-484151Y477300D01*
X-484160Y477319D01*
X-484188Y477374D01*
X-484225Y477457D01*
X-484262Y477578D01*
X-484309Y477726D01*
X-484345Y477892D01*
X-484373Y478077D01*
X-484382Y478280D01*
Y478363D01*
X-484373Y478419D01*
X-484364Y478493D01*
X-484355Y478567D01*
X-484318Y478761D01*
X-484262Y478965D01*
X-484179Y479177D01*
X-484123Y479288D01*
X-484059Y479390D01*
X-483985Y479482D01*
X-483902Y479575D01*
X-483892Y479584D01*
X-483883Y479593D01*
X-483846Y479612D01*
X-483809Y479639D01*
X-483763Y479676D01*
X-483698Y479713D01*
X-483624Y479750D01*
X-483541Y479797D01*
X-483449Y479834D01*
X-483338Y479870D01*
X-483227Y479907D01*
X-483097Y479944D01*
X-482959Y479963D01*
X-482801Y479991D01*
X-482644Y480000D01*
X-482469D01*
X-482358Y479233D01*
D02*
G37*
G36*
X-481110Y475442D02*
X-480980D01*
X-480832Y475433D01*
X-480656Y475414D01*
X-480462Y475396D01*
X-480250Y475368D01*
X-480037Y475331D01*
X-479806Y475285D01*
X-479584Y475229D01*
X-479362Y475164D01*
X-479149Y475081D01*
X-478946Y474989D01*
X-478752Y474887D01*
X-478585Y474767D01*
X-478576Y474758D01*
X-478558Y474739D01*
X-478521Y474702D01*
X-478465Y474656D01*
X-478410Y474600D01*
X-478354Y474527D01*
X-478280Y474434D01*
X-478216Y474342D01*
X-478151Y474231D01*
X-478077Y474110D01*
X-478021Y473972D01*
X-477957Y473833D01*
X-477910Y473676D01*
X-477873Y473510D01*
X-477855Y473334D01*
X-477846Y473149D01*
Y473075D01*
X-477855Y473020D01*
Y472955D01*
X-477864Y472881D01*
X-477901Y472705D01*
X-477948Y472511D01*
X-478021Y472308D01*
X-478132Y472104D01*
X-478197Y472002D01*
X-478271Y471910D01*
X-478280Y471901D01*
X-478290Y471892D01*
X-478317Y471864D01*
X-478345Y471836D01*
X-478391Y471790D01*
X-478447Y471753D01*
X-478576Y471651D01*
X-478743Y471549D01*
X-478946Y471457D01*
X-479177Y471374D01*
X-479436Y471318D01*
X-479501Y472104D01*
X-479492D01*
X-479482Y472113D01*
X-479427Y472123D01*
X-479344Y472150D01*
X-479242Y472187D01*
X-479131Y472224D01*
X-479020Y472280D01*
X-478918Y472345D01*
X-478835Y472409D01*
X-478817Y472428D01*
X-478780Y472465D01*
X-478724Y472529D01*
X-478659Y472622D01*
X-478604Y472742D01*
X-478548Y472872D01*
X-478512Y473029D01*
X-478493Y473195D01*
Y473260D01*
X-478502Y473334D01*
X-478521Y473417D01*
X-478548Y473528D01*
X-478585Y473639D01*
X-478632Y473750D01*
X-478706Y473861D01*
X-478715Y473879D01*
X-478752Y473926D01*
X-478817Y473990D01*
X-478909Y474074D01*
X-479020Y474166D01*
X-479149Y474268D01*
X-479316Y474360D01*
X-479501Y474453D01*
X-479510D01*
X-479529Y474462D01*
X-479556Y474471D01*
X-479593Y474490D01*
X-479649Y474499D01*
X-479713Y474517D01*
X-479787Y474536D01*
X-479880Y474554D01*
X-479981Y474582D01*
X-480093Y474600D01*
X-480213Y474619D01*
X-480342Y474628D01*
X-480490Y474647D01*
X-480638Y474656D01*
X-480804Y474665D01*
X-480971D01*
X-480961Y474656D01*
X-480906Y474619D01*
X-480832Y474554D01*
X-480740Y474471D01*
X-480629Y474379D01*
X-480527Y474258D01*
X-480425Y474129D01*
X-480333Y473981D01*
Y473972D01*
X-480324Y473963D01*
X-480296Y473907D01*
X-480268Y473824D01*
X-480222Y473713D01*
X-480185Y473583D01*
X-480157Y473436D01*
X-480129Y473278D01*
X-480120Y473112D01*
Y473038D01*
X-480129Y472983D01*
X-480139Y472909D01*
X-480148Y472835D01*
X-480166Y472742D01*
X-480194Y472650D01*
X-480259Y472437D01*
X-480305Y472326D01*
X-480370Y472215D01*
X-480434Y472104D01*
X-480508Y471984D01*
X-480601Y471873D01*
X-480703Y471771D01*
X-480712Y471762D01*
X-480730Y471744D01*
X-480758Y471716D01*
X-480804Y471688D01*
X-480869Y471642D01*
X-480934Y471596D01*
X-481017Y471549D01*
X-481110Y471494D01*
X-481211Y471439D01*
X-481322Y471392D01*
X-481452Y471346D01*
X-481581Y471300D01*
X-481720Y471272D01*
X-481877Y471244D01*
X-482034Y471226D01*
X-482201Y471217D01*
X-482210D01*
X-482228D01*
X-482256D01*
X-482302D01*
X-482358Y471226D01*
X-482413D01*
X-482561Y471254D01*
X-482737Y471281D01*
X-482922Y471328D01*
X-483125Y471392D01*
X-483319Y471485D01*
X-483328D01*
X-483338Y471494D01*
X-483365Y471512D01*
X-483402Y471531D01*
X-483495Y471586D01*
X-483615Y471670D01*
X-483745Y471771D01*
X-483874Y471892D01*
X-484003Y472039D01*
X-484114Y472197D01*
Y472206D01*
X-484123Y472215D01*
X-484142Y472243D01*
X-484151Y472280D01*
X-484198Y472372D01*
X-484244Y472493D01*
X-484299Y472650D01*
X-484336Y472825D01*
X-484373Y473020D01*
X-484382Y473232D01*
Y473278D01*
X-484373Y473325D01*
Y473399D01*
X-484364Y473482D01*
X-484345Y473574D01*
X-484318Y473685D01*
X-484290Y473796D01*
X-484253Y473926D01*
X-484207Y474055D01*
X-484151Y474184D01*
X-484077Y474323D01*
X-483994Y474453D01*
X-483902Y474582D01*
X-483791Y474711D01*
X-483661Y474832D01*
X-483652Y474841D01*
X-483624Y474859D01*
X-483587Y474887D01*
X-483523Y474924D01*
X-483439Y474980D01*
X-483347Y475026D01*
X-483227Y475081D01*
X-483097Y475137D01*
X-482940Y475201D01*
X-482764Y475257D01*
X-482570Y475303D01*
X-482358Y475349D01*
X-482117Y475396D01*
X-481858Y475423D01*
X-481581Y475442D01*
X-481285Y475451D01*
X-481276D01*
X-481267D01*
X-481239D01*
X-481202D01*
X-481110Y475442D01*
D02*
G37*
G36*
X-335876Y488820D02*
X-335802Y488811D01*
X-335719Y488802D01*
X-335617Y488783D01*
X-335516Y488765D01*
X-335275Y488709D01*
X-335026Y488617D01*
X-334896Y488561D01*
X-334776Y488487D01*
X-334647Y488413D01*
X-334527Y488321D01*
X-334517Y488312D01*
X-334490Y488293D01*
X-334453Y488256D01*
X-334406Y488210D01*
X-334351Y488145D01*
X-334277Y488071D01*
X-334212Y487979D01*
X-334138Y487877D01*
X-334064Y487766D01*
X-334000Y487637D01*
X-333935Y487498D01*
X-333870Y487350D01*
X-333824Y487193D01*
X-333787Y487017D01*
X-333759Y486832D01*
X-333750Y486638D01*
Y486555D01*
X-333759Y486490D01*
X-333768Y486416D01*
X-333778Y486333D01*
X-333787Y486231D01*
X-333815Y486130D01*
X-333870Y485899D01*
X-333953Y485667D01*
X-334009Y485547D01*
X-334073Y485427D01*
X-334147Y485316D01*
X-334231Y485205D01*
X-334240Y485196D01*
X-334249Y485177D01*
X-334286Y485159D01*
X-334323Y485122D01*
X-334369Y485076D01*
X-334425Y485029D01*
X-334499Y484974D01*
X-334582Y484928D01*
X-334665Y484872D01*
X-334767Y484817D01*
X-334989Y484715D01*
X-335248Y484632D01*
X-335386Y484604D01*
X-335534Y484586D01*
X-335599Y485409D01*
X-335590D01*
X-335571D01*
X-335544Y485418D01*
X-335497Y485427D01*
X-335396Y485455D01*
X-335257Y485492D01*
X-335118Y485547D01*
X-334961Y485621D01*
X-334822Y485714D01*
X-334693Y485825D01*
X-334684Y485843D01*
X-334647Y485880D01*
X-334600Y485954D01*
X-334545Y486056D01*
X-334490Y486167D01*
X-334443Y486305D01*
X-334406Y486463D01*
X-334397Y486638D01*
Y486694D01*
X-334406Y486731D01*
X-334416Y486842D01*
X-334453Y486971D01*
X-334499Y487128D01*
X-334573Y487285D01*
X-334684Y487452D01*
X-334748Y487526D01*
X-334822Y487600D01*
X-334832Y487609D01*
X-334841Y487618D01*
X-334869Y487637D01*
X-334896Y487664D01*
X-334998Y487729D01*
X-335127Y487803D01*
X-335285Y487868D01*
X-335479Y487933D01*
X-335710Y487979D01*
X-335830Y487997D01*
X-335960D01*
X-335969D01*
X-335987D01*
X-336024D01*
X-336071Y487988D01*
X-336126D01*
X-336191Y487979D01*
X-336339Y487951D01*
X-336514Y487905D01*
X-336690Y487840D01*
X-336856Y487748D01*
X-337014Y487618D01*
X-337023D01*
X-337032Y487600D01*
X-337078Y487553D01*
X-337143Y487470D01*
X-337217Y487359D01*
X-337282Y487211D01*
X-337346Y487045D01*
X-337393Y486851D01*
X-337411Y486740D01*
Y486564D01*
X-337402Y486490D01*
X-337393Y486398D01*
X-337365Y486287D01*
X-337337Y486176D01*
X-337291Y486056D01*
X-337235Y485936D01*
X-337226Y485926D01*
X-337208Y485889D01*
X-337162Y485834D01*
X-337115Y485760D01*
X-337051Y485686D01*
X-336967Y485612D01*
X-336884Y485529D01*
X-336782Y485464D01*
X-336884Y484724D01*
X-340176Y485344D01*
Y488524D01*
X-339427D01*
Y485963D01*
X-337698Y485621D01*
X-337707Y485630D01*
X-337716Y485649D01*
X-337735Y485677D01*
X-337762Y485723D01*
X-337790Y485778D01*
X-337827Y485843D01*
X-337901Y485991D01*
X-337975Y486176D01*
X-338040Y486379D01*
X-338086Y486601D01*
X-338105Y486712D01*
Y486916D01*
X-338095Y486971D01*
X-338086Y487045D01*
X-338077Y487128D01*
X-338058Y487221D01*
X-338031Y487322D01*
X-337966Y487544D01*
X-337920Y487664D01*
X-337855Y487785D01*
X-337790Y487905D01*
X-337716Y488025D01*
X-337624Y488136D01*
X-337522Y488247D01*
X-337513Y488256D01*
X-337494Y488275D01*
X-337467Y488302D01*
X-337420Y488339D01*
X-337356Y488386D01*
X-337291Y488432D01*
X-337208Y488487D01*
X-337115Y488543D01*
X-337014Y488589D01*
X-336903Y488644D01*
X-336773Y488691D01*
X-336644Y488737D01*
X-336505Y488774D01*
X-336348Y488802D01*
X-336191Y488820D01*
X-336024Y488829D01*
X-336015D01*
X-335987D01*
X-335941D01*
X-335876Y488820D01*
D02*
G37*
G36*
X-335691Y483513D02*
X-335617D01*
X-335442Y483495D01*
X-335238Y483476D01*
X-335026Y483439D01*
X-334832Y483384D01*
X-334647Y483319D01*
X-334637D01*
X-334628Y483310D01*
X-334573Y483282D01*
X-334499Y483236D01*
X-334397Y483171D01*
X-334295Y483079D01*
X-334184Y482977D01*
X-334073Y482848D01*
X-333981Y482700D01*
X-333972Y482681D01*
X-333944Y482626D01*
X-333907Y482542D01*
X-333870Y482422D01*
X-333824Y482274D01*
X-333787Y482108D01*
X-333759Y481923D01*
X-333750Y481720D01*
Y481636D01*
X-333759Y481581D01*
X-333768Y481507D01*
X-333778Y481433D01*
X-333815Y481239D01*
X-333870Y481035D01*
X-333953Y480823D01*
X-334009Y480712D01*
X-334073Y480610D01*
X-334147Y480518D01*
X-334231Y480425D01*
X-334240Y480416D01*
X-334249Y480407D01*
X-334286Y480388D01*
X-334323Y480360D01*
X-334369Y480323D01*
X-334434Y480286D01*
X-334508Y480249D01*
X-334591Y480203D01*
X-334684Y480166D01*
X-334795Y480129D01*
X-334906Y480092D01*
X-335035Y480055D01*
X-335174Y480037D01*
X-335331Y480009D01*
X-335488Y480000D01*
X-335664D01*
X-335775Y480767D01*
X-335765D01*
X-335747D01*
X-335710D01*
X-335654Y480776D01*
X-335599Y480786D01*
X-335534D01*
X-335377Y480813D01*
X-335211Y480841D01*
X-335044Y480897D01*
X-334896Y480952D01*
X-334832Y480989D01*
X-334776Y481035D01*
X-334767Y481045D01*
X-334739Y481082D01*
X-334693Y481137D01*
X-334647Y481211D01*
X-334591Y481313D01*
X-334554Y481424D01*
X-334517Y481562D01*
X-334508Y481710D01*
Y481766D01*
X-334517Y481821D01*
X-334527Y481904D01*
X-334545Y481988D01*
X-334563Y482080D01*
X-334600Y482173D01*
X-334647Y482265D01*
X-334656Y482274D01*
X-334674Y482302D01*
X-334711Y482339D01*
X-334748Y482394D01*
X-334813Y482441D01*
X-334878Y482496D01*
X-334952Y482542D01*
X-335044Y482579D01*
X-335054D01*
X-335090Y482598D01*
X-335155Y482607D01*
X-335238Y482626D01*
X-335349Y482644D01*
X-335488Y482653D01*
X-335654Y482672D01*
X-335849D01*
X-340259D01*
Y483522D01*
X-335895D01*
X-335886D01*
X-335858D01*
X-335821D01*
X-335765D01*
X-335691Y483513D01*
D02*
G37*
%LPC*%
G36*
X-482201Y474545D02*
X-482219D01*
X-482265D01*
X-482348Y474536D01*
X-482450Y474527D01*
X-482570Y474508D01*
X-482700Y474471D01*
X-482838Y474434D01*
X-482977Y474379D01*
X-482996Y474369D01*
X-483042Y474342D01*
X-483106Y474305D01*
X-483190Y474249D01*
X-483273Y474184D01*
X-483375Y474101D01*
X-483458Y474009D01*
X-483541Y473898D01*
X-483550Y473879D01*
X-483569Y473842D01*
X-483606Y473778D01*
X-483633Y473694D01*
X-483671Y473602D01*
X-483708Y473491D01*
X-483726Y473371D01*
X-483735Y473241D01*
Y473195D01*
X-483726Y473158D01*
X-483717Y473066D01*
X-483689Y472946D01*
X-483633Y472816D01*
X-483569Y472668D01*
X-483467Y472520D01*
X-483412Y472446D01*
X-483338Y472382D01*
X-483328D01*
X-483319Y472363D01*
X-483264Y472326D01*
X-483171Y472271D01*
X-483051Y472197D01*
X-482894Y472132D01*
X-482709Y472076D01*
X-482496Y472039D01*
X-482247Y472021D01*
X-482237D01*
X-482219D01*
X-482182D01*
X-482136Y472030D01*
X-482080D01*
X-482015Y472039D01*
X-481868Y472067D01*
X-481701Y472104D01*
X-481525Y472169D01*
X-481359Y472261D01*
X-481202Y472382D01*
X-481183Y472400D01*
X-481137Y472446D01*
X-481082Y472520D01*
X-481008Y472622D01*
X-480934Y472751D01*
X-480878Y472899D01*
X-480832Y473075D01*
X-480814Y473269D01*
Y473325D01*
X-480823Y473362D01*
X-480832Y473454D01*
X-480860Y473583D01*
X-480906Y473722D01*
X-480980Y473879D01*
X-481073Y474027D01*
X-481202Y474175D01*
X-481220Y474194D01*
X-481267Y474231D01*
X-481350Y474295D01*
X-481470Y474360D01*
X-481609Y474425D01*
X-481784Y474490D01*
X-481979Y474527D01*
X-482201Y474545D01*
D02*
G37*
%LPD*%
D11*
X-521000Y523000D02*
X-444000D01*
X-521000Y437000D02*
Y523000D01*
Y437000D02*
X-444000D01*
Y523000D01*
X-362750Y449250D02*
X-304750D01*
Y510750D01*
X-362750D02*
X-304750D01*
X-362750Y449250D02*
Y510750D01*
M02*
