G04*
G04 #@! TF.GenerationSoftware,Altium Limited,Altium Designer,24.9.1 (31)*
G04*
G04 Layer_Color=65535*
%FSLAX44Y44*%
%MOMM*%
G71*
G04*
G04 #@! TF.SameCoordinates,B8B67402-8590-40DF-8F2E-53978CF21371*
G04*
G04*
G04 #@! TF.FilePolarity,Positive*
G04*
G01*
G75*
%ADD10C,0.2500*%
%ADD11C,0.2000*%
%ADD12C,0.2540*%
D10*
X-524500Y490000D02*
G03*
X-524500Y490000I-1250J0D01*
G01*
X-366250Y486250D02*
G03*
X-366250Y486250I-1250J0D01*
G01*
D11*
X-451250Y519750D02*
X-445000D01*
X-495000D02*
X-488750D01*
X-495000Y440250D02*
Y461250D01*
Y498750D02*
Y519750D01*
X-451250Y440250D02*
X-445000D01*
X-495000D02*
X-488750D01*
X-445000D02*
Y519750D01*
X-351250Y451250D02*
X-337500D01*
X-308750Y464000D02*
Y496000D01*
X-351250Y508750D02*
X-337500D01*
X-351250Y493000D02*
Y508750D01*
Y451250D02*
Y467000D01*
D12*
X-420000Y480000D02*
X-370000D01*
X-572540Y822540D02*
Y827872D01*
X-555206Y122540D02*
Y127872D01*
X-557872Y125206D02*
X-552540D01*
X-542540Y522540D02*
Y527872D01*
X-565206Y422540D02*
Y427872D01*
X-567872Y425206D02*
X-562540D01*
X-587460Y540537D02*
X-582128Y532540D01*
Y540537D02*
X-587460Y532540D01*
X-579463Y540537D02*
X-574131D01*
X-576797D01*
Y532540D01*
X-571465Y539204D02*
X-570132Y540537D01*
X-567466D01*
X-566133Y539204D01*
Y537872D01*
X-567466Y536539D01*
X-568799D01*
X-567466D01*
X-566133Y535206D01*
Y533873D01*
X-567466Y532540D01*
X-570132D01*
X-571465Y533873D01*
X-563468Y539204D02*
X-562135Y540537D01*
X-559469D01*
X-558136Y539204D01*
Y533873D01*
X-559469Y532540D01*
X-562135D01*
X-563468Y533873D01*
Y539204D01*
X-557460Y160537D02*
Y152540D01*
X-552128D01*
X-549463D02*
Y157872D01*
X-546797Y160537D01*
X-544131Y157872D01*
Y152540D01*
Y156539D01*
X-549463D01*
X-541465Y160537D02*
Y152540D01*
X-537466D01*
X-536133Y153873D01*
Y155206D01*
X-537466Y156539D01*
X-541465D01*
X-537466D01*
X-536133Y157872D01*
Y159205D01*
X-537466Y160537D01*
X-541465D01*
X-533468Y152540D02*
Y160537D01*
X-529469D01*
X-528136Y159205D01*
Y156539D01*
X-529469Y155206D01*
X-533468D01*
X-520139Y160537D02*
X-525470D01*
Y156539D01*
X-522804Y157872D01*
X-521472D01*
X-520139Y156539D01*
Y153873D01*
X-521472Y152540D01*
X-524137D01*
X-525470Y153873D01*
X-517473Y159205D02*
X-516140Y160537D01*
X-513474D01*
X-512141Y159205D01*
Y153873D01*
X-513474Y152540D01*
X-516140D01*
X-517473Y153873D01*
Y159205D01*
X-504144D02*
X-505477Y160537D01*
X-508143D01*
X-509476Y159205D01*
Y157872D01*
X-508143Y156539D01*
X-505477D01*
X-504144Y155206D01*
Y153873D01*
X-505477Y152540D01*
X-508143D01*
X-509476Y153873D01*
X-557460Y760537D02*
Y752540D01*
X-552128D01*
X-549463D02*
Y757872D01*
X-546797Y760537D01*
X-544131Y757872D01*
Y752540D01*
Y756539D01*
X-549463D01*
X-541465Y760537D02*
Y752540D01*
X-537466D01*
X-536133Y753873D01*
Y755206D01*
X-537466Y756539D01*
X-541465D01*
X-537466D01*
X-536133Y757872D01*
Y759204D01*
X-537466Y760537D01*
X-541465D01*
X-533468Y752540D02*
Y760537D01*
X-529469D01*
X-528136Y759204D01*
Y756539D01*
X-529469Y755206D01*
X-533468D01*
X-520139Y760537D02*
X-525470D01*
Y756539D01*
X-522804Y757872D01*
X-521472D01*
X-520139Y756539D01*
Y753873D01*
X-521472Y752540D01*
X-524137D01*
X-525470Y753873D01*
X-517473Y759204D02*
X-516140Y760537D01*
X-513474D01*
X-512141Y759204D01*
Y753873D01*
X-513474Y752540D01*
X-516140D01*
X-517473Y753873D01*
Y759204D01*
X-504144D02*
X-505477Y760537D01*
X-508143D01*
X-509476Y759204D01*
Y757872D01*
X-508143Y756539D01*
X-505477D01*
X-504144Y755206D01*
Y753873D01*
X-505477Y752540D01*
X-508143D01*
X-509476Y753873D01*
X-477460Y672540D02*
X-457467D01*
X-477460Y302537D02*
X-457467D01*
X-467463Y312533D02*
Y292540D01*
M02*
